<svg width="1280" height="1280" viewBox="0 0 1280 1280" fill="none" xmlns="http://www.w3.org/2000/svg">
<circle cx="640.304" cy="592.972" r="407.972" fill="white" stroke="black" stroke-width="12"/>
<path fill-rule="evenodd" clip-rule="evenodd" d="M870.104 372.255C876.679 368.301 884.53 367.046 892.009 368.756C899.489 370.465 906.015 375.005 910.219 381.424L939.593 426.226C943.422 432.079 945.061 439.097 944.219 446.04C943.378 452.984 940.111 459.406 934.994 464.175L934.905 464.294L934.49 464.68L932.799 466.252L926.123 472.631C889.184 508.464 853.364 545.431 818.715 583.481C753.528 655.166 676.117 748.984 624.016 840.014C609.477 865.412 573.961 870.872 552.895 848.945L360.48 649.024C357.723 646.158 355.57 642.766 354.149 639.052C352.728 635.337 352.069 631.374 352.21 627.4C352.351 623.425 353.29 619.519 354.971 615.915C356.651 612.31 359.04 609.08 361.993 606.417L420.148 553.959C425.259 549.351 431.812 546.663 438.686 546.355C445.56 546.046 452.327 548.136 457.83 552.268L556.01 625.881C709.378 474.649 796.343 416.613 870.104 372.255ZM876.335 438.006C808.389 480.494 723.59 542.12 579.687 685.993C574.638 691.043 567.936 694.103 560.813 694.609C553.689 695.116 546.622 693.037 540.908 688.753L441.748 614.398L424.51 629.946L582.269 793.906C637.041 702.817 712.434 612.143 774.832 543.544C807.691 507.45 841.579 472.305 876.454 438.154L876.335 438.006Z" fill="black"/>
<path d="M130.345 1094.75C111.61 1031.47 860.858 1012.1 1149.59 1046.31" stroke="white" stroke-width="10"/>
</svg>
