<svg width="771" height="226" viewBox="0 0 771 226" fill="none" xmlns="http://www.w3.org/2000/svg">
<g filter="url(#filter0_d_1055_58)">
<mask id="path-1-outside-1_1055_58" maskUnits="userSpaceOnUse" x="4" y="37" width="763" height="117" fill="black">
<rect fill="white" x="4" y="37" width="763" height="117"/>
<path d="M92.0215 147V99.9785H41.5576V147H8.96484V42.1172H41.5576V87.7471H92.0215V42.1172H124.614V147H92.0215ZM234.624 123.782C236.968 123.782 239.019 123.392 240.776 122.61V145.682C238.823 146.707 236.211 147.586 232.939 148.318C229.717 149.1 226.567 149.49 223.491 149.49C217.534 149.49 213.286 147.732 210.747 144.217C208.257 140.701 207.012 135.11 207.012 127.444C207.012 124.466 207.207 120.877 207.598 116.678H206.719C205.059 123.562 202.251 129.471 198.296 134.402C194.341 139.334 189.482 143.094 183.721 145.682C177.959 148.27 171.636 149.563 164.751 149.563C159.038 149.563 154.033 148.758 149.736 147.146C145.439 145.584 142.095 143.216 139.702 140.042C137.358 136.868 136.187 133.011 136.187 128.47C136.187 122.317 138.237 117.654 142.339 114.48C146.489 111.258 152.3 109.109 159.771 108.035C167.241 106.912 176.982 106.351 188.994 106.351C191.875 106.351 196.587 106.399 203.13 106.497V106.058C203.13 101.761 201.689 98.4648 198.809 96.1699C195.928 93.8262 191.631 92.6543 185.918 92.6543C180.449 92.6543 175.615 93.7529 171.416 95.9502C167.217 98.0986 164.971 101.59 164.678 106.424L144.536 102.322C144.39 101.053 144.316 99.832 144.316 98.6602C144.316 93.2402 145.928 88.3086 149.15 83.8652C152.422 79.373 157.28 75.8086 163.726 73.1719C170.22 70.5352 178.081 69.2168 187.31 69.2168C200.103 69.2168 210.454 72 218.364 77.5664C226.274 83.1328 230.229 92.3857 230.229 105.325V117.117C230.229 119.266 230.547 120.926 231.182 122.098C231.865 123.221 233.013 123.782 234.624 123.782ZM177.861 126.419C184.746 126.419 190.532 125.149 195.22 122.61C199.956 120.071 202.568 116.092 203.057 110.672L198.589 110.599C187.896 110.599 179.448 111.355 173.247 112.869C167.095 114.383 164.019 116.58 164.019 119.461C164.019 121.707 165.19 123.44 167.534 124.661C169.878 125.833 173.32 126.419 177.861 126.419ZM319.805 126.565H319.072C316.631 134.476 312.603 140.286 306.987 143.997C301.421 147.659 294.316 149.49 285.674 149.49C277.861 149.49 270.903 147.806 264.8 144.437C258.745 141.019 254.009 136.282 250.591 130.228C247.222 124.124 245.537 117.142 245.537 109.28C245.537 101.175 247.222 94.0947 250.591 88.04C254.009 81.9854 258.745 77.3467 264.8 74.124C270.903 70.8525 277.91 69.2168 285.82 69.2168C294.854 69.2168 302.324 71.8047 308.232 76.9805C314.189 82.1562 318.145 89.6514 320.098 99.4658H320.977L320.61 95.3643C320.171 90.5303 319.854 86.5752 319.658 83.499C319.463 80.4229 319.365 77.2734 319.365 74.0508V41.0918H346.465V147H318.193L319.805 126.565ZM317.388 109.354C317.388 106.18 316.46 103.372 314.604 100.931C312.798 98.4893 310.161 96.585 306.694 95.2178C303.276 93.8506 299.175 93.167 294.39 93.167C289.409 93.167 285.137 93.8506 281.572 95.2178C278.008 96.5361 275.298 98.416 273.442 100.857C271.636 103.25 270.732 106.033 270.732 109.207C270.732 112.43 271.636 115.262 273.442 117.703C275.298 120.096 277.983 121.976 281.499 123.343C285.063 124.71 289.336 125.394 294.316 125.394C301.934 125.394 307.671 123.953 311.528 121.072C315.435 118.143 317.388 114.236 317.388 109.354ZM454.497 123.782C456.841 123.782 458.892 123.392 460.649 122.61V145.682C458.696 146.707 456.084 147.586 452.812 148.318C449.59 149.1 446.44 149.49 443.364 149.49C437.407 149.49 433.159 147.732 430.62 144.217C428.13 140.701 426.885 135.11 426.885 127.444C426.885 124.466 427.08 120.877 427.471 116.678H426.592C424.932 123.562 422.124 129.471 418.169 134.402C414.214 139.334 409.355 143.094 403.594 145.682C397.832 148.27 391.509 149.563 384.624 149.563C378.911 149.563 373.906 148.758 369.609 147.146C365.312 145.584 361.968 143.216 359.575 140.042C357.231 136.868 356.06 133.011 356.06 128.47C356.06 122.317 358.11 117.654 362.212 114.48C366.362 111.258 372.173 109.109 379.644 108.035C387.114 106.912 396.855 106.351 408.867 106.351C411.748 106.351 416.46 106.399 423.003 106.497V106.058C423.003 101.761 421.562 98.4648 418.682 96.1699C415.801 93.8262 411.504 92.6543 405.791 92.6543C400.322 92.6543 395.488 93.7529 391.289 95.9502C387.09 98.0986 384.844 101.59 384.551 106.424L364.409 102.322C364.263 101.053 364.189 99.832 364.189 98.6602C364.189 93.2402 365.801 88.3086 369.023 83.8652C372.295 79.373 377.153 75.8086 383.599 73.1719C390.093 70.5352 397.954 69.2168 407.183 69.2168C419.976 69.2168 430.327 72 438.237 77.5664C446.147 83.1328 450.103 92.3857 450.103 105.325V117.117C450.103 119.266 450.42 120.926 451.055 122.098C451.738 123.221 452.886 123.782 454.497 123.782ZM397.734 126.419C404.619 126.419 410.405 125.149 415.093 122.61C419.829 120.071 422.441 116.092 422.93 110.672L418.462 110.599C407.769 110.599 399.321 111.355 393.12 112.869C386.968 114.383 383.892 116.58 383.892 119.461C383.892 121.707 385.063 123.44 387.407 124.661C389.751 125.833 393.193 126.419 397.734 126.419ZM546.709 117.923C546.904 119.144 547.002 120.56 547.002 122.171C547.002 127.2 545.806 131.79 543.413 135.94C541.069 140.042 537.358 143.338 532.28 145.828C527.202 148.27 520.83 149.49 513.164 149.49C501.689 149.49 493.193 146.683 487.676 141.067C482.207 135.452 479.473 127.078 479.473 115.945V95.291H463.652V71.7803H475.811C479.131 71.7803 481.499 70.9746 482.915 69.3633C484.331 67.752 485.039 65.2861 485.039 61.9658V48.1963H506.572C506.572 54.5928 506.45 59.3047 506.206 62.332C506.011 65.3105 505.571 67.8984 504.888 70.0957V71.7803H535.576V95.291H506.572V113.968C506.572 118.655 507.451 121.976 509.209 123.929C511.016 125.833 513.53 126.785 516.753 126.785C520.024 126.785 522.466 125.955 524.077 124.295C525.688 122.635 526.372 120.145 526.128 116.824L546.709 117.923ZM581.499 41.0918V78.2988C581.499 83.084 581.304 87.21 580.913 90.6768C580.522 94.0947 579.937 97.8789 579.155 102.029C578.765 103.982 578.374 106.326 577.983 109.061H578.862C582.085 95.4375 586.65 85.4033 592.559 78.958C598.467 72.4639 606.011 69.2168 615.19 69.2168C627.495 69.2168 636.284 72.7568 641.558 79.8369C646.88 86.8682 649.541 97.0977 649.541 110.525V147H622.734V115.872C622.734 108.694 621.27 103.494 618.34 100.271C615.41 97.0488 610.967 95.4375 605.01 95.4375C600.566 95.4375 596.538 96.4873 592.925 98.5869C589.312 100.638 586.455 103.543 584.355 107.303C582.256 111.062 581.206 115.335 581.206 120.12V147H554.399V41.0918H581.499ZM756.841 123.782C759.185 123.782 761.235 123.392 762.993 122.61V145.682C761.04 146.707 758.428 147.586 755.156 148.318C751.934 149.1 748.784 149.49 745.708 149.49C739.751 149.49 735.503 147.732 732.964 144.217C730.474 140.701 729.229 135.11 729.229 127.444C729.229 124.466 729.424 120.877 729.814 116.678H728.936C727.275 123.562 724.468 129.471 720.513 134.402C716.558 139.334 711.699 143.094 705.938 145.682C700.176 148.27 693.853 149.563 686.968 149.563C681.255 149.563 676.25 148.758 671.953 147.146C667.656 145.584 664.312 143.216 661.919 140.042C659.575 136.868 658.403 133.011 658.403 128.47C658.403 122.317 660.454 117.654 664.556 114.48C668.706 111.258 674.517 109.109 681.987 108.035C689.458 106.912 699.199 106.351 711.211 106.351C714.092 106.351 718.804 106.399 725.347 106.497V106.058C725.347 101.761 723.906 98.4648 721.025 96.1699C718.145 93.8262 713.848 92.6543 708.135 92.6543C702.666 92.6543 697.832 93.7529 693.633 95.9502C689.434 98.0986 687.188 101.59 686.895 106.424L666.753 102.322C666.606 101.053 666.533 99.832 666.533 98.6602C666.533 93.2402 668.145 88.3086 671.367 83.8652C674.639 79.373 679.497 75.8086 685.942 73.1719C692.437 70.5352 700.298 69.2168 709.526 69.2168C722.319 69.2168 732.671 72 740.581 77.5664C748.491 83.1328 752.446 92.3857 752.446 105.325V117.117C752.446 119.266 752.764 120.926 753.398 122.098C754.082 123.221 755.229 123.782 756.841 123.782ZM700.078 126.419C706.963 126.419 712.749 125.149 717.437 122.61C722.173 120.071 724.785 116.092 725.273 110.672L720.806 110.599C710.112 110.599 701.665 111.355 695.464 112.869C689.312 114.383 686.235 116.58 686.235 119.461C686.235 121.707 687.407 123.44 689.751 124.661C692.095 125.833 695.537 126.419 700.078 126.419Z"/>
</mask>
<path d="M92.0215 147V99.9785H41.5576V147H8.96484V42.1172H41.5576V87.7471H92.0215V42.1172H124.614V147H92.0215ZM234.624 123.782C236.968 123.782 239.019 123.392 240.776 122.61V145.682C238.823 146.707 236.211 147.586 232.939 148.318C229.717 149.1 226.567 149.49 223.491 149.49C217.534 149.49 213.286 147.732 210.747 144.217C208.257 140.701 207.012 135.11 207.012 127.444C207.012 124.466 207.207 120.877 207.598 116.678H206.719C205.059 123.562 202.251 129.471 198.296 134.402C194.341 139.334 189.482 143.094 183.721 145.682C177.959 148.27 171.636 149.563 164.751 149.563C159.038 149.563 154.033 148.758 149.736 147.146C145.439 145.584 142.095 143.216 139.702 140.042C137.358 136.868 136.187 133.011 136.187 128.47C136.187 122.317 138.237 117.654 142.339 114.48C146.489 111.258 152.3 109.109 159.771 108.035C167.241 106.912 176.982 106.351 188.994 106.351C191.875 106.351 196.587 106.399 203.13 106.497V106.058C203.13 101.761 201.689 98.4648 198.809 96.1699C195.928 93.8262 191.631 92.6543 185.918 92.6543C180.449 92.6543 175.615 93.7529 171.416 95.9502C167.217 98.0986 164.971 101.59 164.678 106.424L144.536 102.322C144.39 101.053 144.316 99.832 144.316 98.6602C144.316 93.2402 145.928 88.3086 149.15 83.8652C152.422 79.373 157.28 75.8086 163.726 73.1719C170.22 70.5352 178.081 69.2168 187.31 69.2168C200.103 69.2168 210.454 72 218.364 77.5664C226.274 83.1328 230.229 92.3857 230.229 105.325V117.117C230.229 119.266 230.547 120.926 231.182 122.098C231.865 123.221 233.013 123.782 234.624 123.782ZM177.861 126.419C184.746 126.419 190.532 125.149 195.22 122.61C199.956 120.071 202.568 116.092 203.057 110.672L198.589 110.599C187.896 110.599 179.448 111.355 173.247 112.869C167.095 114.383 164.019 116.58 164.019 119.461C164.019 121.707 165.19 123.44 167.534 124.661C169.878 125.833 173.32 126.419 177.861 126.419ZM319.805 126.565H319.072C316.631 134.476 312.603 140.286 306.987 143.997C301.421 147.659 294.316 149.49 285.674 149.49C277.861 149.49 270.903 147.806 264.8 144.437C258.745 141.019 254.009 136.282 250.591 130.228C247.222 124.124 245.537 117.142 245.537 109.28C245.537 101.175 247.222 94.0947 250.591 88.04C254.009 81.9854 258.745 77.3467 264.8 74.124C270.903 70.8525 277.91 69.2168 285.82 69.2168C294.854 69.2168 302.324 71.8047 308.232 76.9805C314.189 82.1562 318.145 89.6514 320.098 99.4658H320.977L320.61 95.3643C320.171 90.5303 319.854 86.5752 319.658 83.499C319.463 80.4229 319.365 77.2734 319.365 74.0508V41.0918H346.465V147H318.193L319.805 126.565ZM317.388 109.354C317.388 106.18 316.46 103.372 314.604 100.931C312.798 98.4893 310.161 96.585 306.694 95.2178C303.276 93.8506 299.175 93.167 294.39 93.167C289.409 93.167 285.137 93.8506 281.572 95.2178C278.008 96.5361 275.298 98.416 273.442 100.857C271.636 103.25 270.732 106.033 270.732 109.207C270.732 112.43 271.636 115.262 273.442 117.703C275.298 120.096 277.983 121.976 281.499 123.343C285.063 124.71 289.336 125.394 294.316 125.394C301.934 125.394 307.671 123.953 311.528 121.072C315.435 118.143 317.388 114.236 317.388 109.354ZM454.497 123.782C456.841 123.782 458.892 123.392 460.649 122.61V145.682C458.696 146.707 456.084 147.586 452.812 148.318C449.59 149.1 446.44 149.49 443.364 149.49C437.407 149.49 433.159 147.732 430.62 144.217C428.13 140.701 426.885 135.11 426.885 127.444C426.885 124.466 427.08 120.877 427.471 116.678H426.592C424.932 123.562 422.124 129.471 418.169 134.402C414.214 139.334 409.355 143.094 403.594 145.682C397.832 148.27 391.509 149.563 384.624 149.563C378.911 149.563 373.906 148.758 369.609 147.146C365.312 145.584 361.968 143.216 359.575 140.042C357.231 136.868 356.06 133.011 356.06 128.47C356.06 122.317 358.11 117.654 362.212 114.48C366.362 111.258 372.173 109.109 379.644 108.035C387.114 106.912 396.855 106.351 408.867 106.351C411.748 106.351 416.46 106.399 423.003 106.497V106.058C423.003 101.761 421.562 98.4648 418.682 96.1699C415.801 93.8262 411.504 92.6543 405.791 92.6543C400.322 92.6543 395.488 93.7529 391.289 95.9502C387.09 98.0986 384.844 101.59 384.551 106.424L364.409 102.322C364.263 101.053 364.189 99.832 364.189 98.6602C364.189 93.2402 365.801 88.3086 369.023 83.8652C372.295 79.373 377.153 75.8086 383.599 73.1719C390.093 70.5352 397.954 69.2168 407.183 69.2168C419.976 69.2168 430.327 72 438.237 77.5664C446.147 83.1328 450.103 92.3857 450.103 105.325V117.117C450.103 119.266 450.42 120.926 451.055 122.098C451.738 123.221 452.886 123.782 454.497 123.782ZM397.734 126.419C404.619 126.419 410.405 125.149 415.093 122.61C419.829 120.071 422.441 116.092 422.93 110.672L418.462 110.599C407.769 110.599 399.321 111.355 393.12 112.869C386.968 114.383 383.892 116.58 383.892 119.461C383.892 121.707 385.063 123.44 387.407 124.661C389.751 125.833 393.193 126.419 397.734 126.419ZM546.709 117.923C546.904 119.144 547.002 120.56 547.002 122.171C547.002 127.2 545.806 131.79 543.413 135.94C541.069 140.042 537.358 143.338 532.28 145.828C527.202 148.27 520.83 149.49 513.164 149.49C501.689 149.49 493.193 146.683 487.676 141.067C482.207 135.452 479.473 127.078 479.473 115.945V95.291H463.652V71.7803H475.811C479.131 71.7803 481.499 70.9746 482.915 69.3633C484.331 67.752 485.039 65.2861 485.039 61.9658V48.1963H506.572C506.572 54.5928 506.45 59.3047 506.206 62.332C506.011 65.3105 505.571 67.8984 504.888 70.0957V71.7803H535.576V95.291H506.572V113.968C506.572 118.655 507.451 121.976 509.209 123.929C511.016 125.833 513.53 126.785 516.753 126.785C520.024 126.785 522.466 125.955 524.077 124.295C525.688 122.635 526.372 120.145 526.128 116.824L546.709 117.923ZM581.499 41.0918V78.2988C581.499 83.084 581.304 87.21 580.913 90.6768C580.522 94.0947 579.937 97.8789 579.155 102.029C578.765 103.982 578.374 106.326 577.983 109.061H578.862C582.085 95.4375 586.65 85.4033 592.559 78.958C598.467 72.4639 606.011 69.2168 615.19 69.2168C627.495 69.2168 636.284 72.7568 641.558 79.8369C646.88 86.8682 649.541 97.0977 649.541 110.525V147H622.734V115.872C622.734 108.694 621.27 103.494 618.34 100.271C615.41 97.0488 610.967 95.4375 605.01 95.4375C600.566 95.4375 596.538 96.4873 592.925 98.5869C589.312 100.638 586.455 103.543 584.355 107.303C582.256 111.062 581.206 115.335 581.206 120.12V147H554.399V41.0918H581.499ZM756.841 123.782C759.185 123.782 761.235 123.392 762.993 122.61V145.682C761.04 146.707 758.428 147.586 755.156 148.318C751.934 149.1 748.784 149.49 745.708 149.49C739.751 149.49 735.503 147.732 732.964 144.217C730.474 140.701 729.229 135.11 729.229 127.444C729.229 124.466 729.424 120.877 729.814 116.678H728.936C727.275 123.562 724.468 129.471 720.513 134.402C716.558 139.334 711.699 143.094 705.938 145.682C700.176 148.27 693.853 149.563 686.968 149.563C681.255 149.563 676.25 148.758 671.953 147.146C667.656 145.584 664.312 143.216 661.919 140.042C659.575 136.868 658.403 133.011 658.403 128.47C658.403 122.317 660.454 117.654 664.556 114.48C668.706 111.258 674.517 109.109 681.987 108.035C689.458 106.912 699.199 106.351 711.211 106.351C714.092 106.351 718.804 106.399 725.347 106.497V106.058C725.347 101.761 723.906 98.4648 721.025 96.1699C718.145 93.8262 713.848 92.6543 708.135 92.6543C702.666 92.6543 697.832 93.7529 693.633 95.9502C689.434 98.0986 687.188 101.59 686.895 106.424L666.753 102.322C666.606 101.053 666.533 99.832 666.533 98.6602C666.533 93.2402 668.145 88.3086 671.367 83.8652C674.639 79.373 679.497 75.8086 685.942 73.1719C692.437 70.5352 700.298 69.2168 709.526 69.2168C722.319 69.2168 732.671 72 740.581 77.5664C748.491 83.1328 752.446 92.3857 752.446 105.325V117.117C752.446 119.266 752.764 120.926 753.398 122.098C754.082 123.221 755.229 123.782 756.841 123.782ZM700.078 126.419C706.963 126.419 712.749 125.149 717.437 122.61C722.173 120.071 724.785 116.092 725.273 110.672L720.806 110.599C710.112 110.599 701.665 111.355 695.464 112.869C689.312 114.383 686.235 116.58 686.235 119.461C686.235 121.707 687.407 123.44 689.751 124.661C692.095 125.833 695.537 126.419 700.078 126.419Z" fill="white"/>
<path d="M92.0215 147H88.0215V151H92.0215V147ZM92.0215 99.9785H96.0215V95.9785H92.0215V99.9785ZM41.5576 99.9785V95.9785H37.5576V99.9785H41.5576ZM41.5576 147V151H45.5576V147H41.5576ZM8.96484 147H4.96484V151H8.96484V147ZM8.96484 42.1172V38.1172H4.96484V42.1172H8.96484ZM41.5576 42.1172H45.5576V38.1172H41.5576V42.1172ZM41.5576 87.7471H37.5576V91.7471H41.5576V87.7471ZM92.0215 87.7471V91.7471H96.0215V87.7471H92.0215ZM92.0215 42.1172V38.1172H88.0215V42.1172H92.0215ZM124.614 42.1172H128.614V38.1172H124.614V42.1172ZM124.614 147V151H128.614V147H124.614ZM92.0215 147H96.0215V99.9785H92.0215H88.0215V147H92.0215ZM92.0215 99.9785V95.9785H41.5576V99.9785V103.979H92.0215V99.9785ZM41.5576 99.9785H37.5576V147H41.5576H45.5576V99.9785H41.5576ZM41.5576 147V143H8.96484V147V151H41.5576V147ZM8.96484 147H12.9648V42.1172H8.96484H4.96484V147H8.96484ZM8.96484 42.1172V46.1172H41.5576V42.1172V38.1172H8.96484V42.1172ZM41.5576 42.1172H37.5576V87.7471H41.5576H45.5576V42.1172H41.5576ZM41.5576 87.7471V91.7471H92.0215V87.7471V83.7471H41.5576V87.7471ZM92.0215 87.7471H96.0215V42.1172H92.0215H88.0215V87.7471H92.0215ZM92.0215 42.1172V46.1172H124.614V42.1172V38.1172H92.0215V42.1172ZM124.614 42.1172H120.614V147H124.614H128.614V42.1172H124.614ZM124.614 147V143H92.0215V147V151H124.614V147ZM240.776 122.61H244.776V116.455L239.152 118.955L240.776 122.61ZM240.776 145.682L242.636 149.223L244.776 148.099V145.682H240.776ZM232.939 148.318L232.066 144.415L232.031 144.423L231.997 144.431L232.939 148.318ZM210.747 144.217L207.483 146.529L207.494 146.544L207.504 146.559L210.747 144.217ZM207.598 116.678L211.58 117.048L211.987 112.678H207.598V116.678ZM206.719 116.678V112.678H203.569L202.83 115.74L206.719 116.678ZM149.736 147.146L151.141 143.401L151.122 143.394L151.103 143.387L149.736 147.146ZM139.702 140.042L136.484 142.418L136.496 142.434L136.508 142.45L139.702 140.042ZM142.339 114.48L144.787 117.644L144.792 117.64L142.339 114.48ZM159.771 108.035L160.34 111.994L160.352 111.993L160.365 111.991L159.771 108.035ZM203.13 106.497L203.07 110.497L207.13 110.557V106.497H203.13ZM198.809 96.1699L196.284 99.2728L196.3 99.2857L196.316 99.2986L198.809 96.1699ZM171.416 95.9502L173.238 99.5112L173.254 99.5028L173.271 99.4943L171.416 95.9502ZM164.678 106.424L163.88 110.343L168.392 111.262L168.67 106.666L164.678 106.424ZM144.536 102.322L140.562 102.781L140.895 105.663L143.738 106.242L144.536 102.322ZM149.15 83.8652L145.917 81.5105L145.912 81.5168L149.15 83.8652ZM163.726 73.1719L162.221 69.4657L162.211 69.4697L163.726 73.1719ZM231.182 122.098L227.664 124.003L227.712 124.091L227.765 124.177L231.182 122.098ZM195.22 122.61L193.33 119.085L193.322 119.089L193.315 119.093L195.22 122.61ZM203.057 110.672L207.041 111.031L207.427 106.743L203.122 106.672L203.057 110.672ZM198.589 110.599L198.654 106.599L198.622 106.599H198.589V110.599ZM173.247 112.869L172.299 108.983L172.291 108.985L173.247 112.869ZM167.534 124.661L165.686 128.209L165.716 128.224L165.745 128.239L167.534 124.661ZM234.624 123.782V127.782C237.408 127.782 240.033 127.318 242.401 126.266L240.776 122.61L239.152 118.955C238.004 119.465 236.528 119.782 234.624 119.782V123.782ZM240.776 122.61H236.776V145.682H240.776H244.776V122.61H240.776ZM240.776 145.682L238.917 142.14C237.392 142.941 235.152 143.724 232.066 144.415L232.939 148.318L233.813 152.222C237.27 151.448 240.255 150.473 242.636 149.223L240.776 145.682ZM232.939 148.318L231.997 144.431C229.059 145.143 226.226 145.49 223.491 145.49V149.49V153.49C226.908 153.49 230.374 153.056 233.882 152.206L232.939 148.318ZM223.491 149.49V145.49C218.3 145.49 215.518 143.99 213.99 141.875L210.747 144.217L207.504 146.559C211.055 151.475 216.768 153.49 223.491 153.49V149.49ZM210.747 144.217L214.011 141.905C212.247 139.414 211.012 134.849 211.012 127.444H207.012H203.012C203.012 135.371 204.267 141.988 207.483 146.529L210.747 144.217ZM207.012 127.444H211.012C211.012 124.629 211.197 121.17 211.58 117.048L207.598 116.678L203.615 116.307C203.217 120.583 203.012 124.303 203.012 127.444H207.012ZM207.598 116.678V112.678H206.719V116.678V120.678H207.598V116.678ZM206.719 116.678L202.83 115.74C201.291 122.122 198.72 127.479 195.175 131.9L198.296 134.402L201.416 136.905C205.781 131.462 208.826 125.003 210.607 117.615L206.719 116.678ZM198.296 134.402L195.175 131.9C191.616 136.338 187.265 139.705 182.082 142.033L183.721 145.682L185.36 149.33C191.699 146.483 197.065 142.33 201.416 136.905L198.296 134.402ZM183.721 145.682L182.082 142.033C176.88 144.369 171.122 145.563 164.751 145.563V149.563V153.563C172.149 153.563 179.038 152.17 185.36 149.33L183.721 145.682ZM164.751 149.563V145.563C159.405 145.563 154.894 144.808 151.141 143.401L149.736 147.146L148.332 150.892C153.173 152.707 158.671 153.563 164.751 153.563V149.563ZM149.736 147.146L151.103 143.387C147.421 142.048 144.756 140.102 142.896 137.634L139.702 140.042L136.508 142.45C139.433 146.33 143.458 149.12 148.369 150.906L149.736 147.146ZM139.702 140.042L142.92 137.666C141.159 135.281 140.187 132.29 140.187 128.47H136.187H132.187C132.187 133.732 133.558 138.456 136.484 142.418L139.702 140.042ZM136.187 128.47H140.187C140.187 123.297 141.852 119.915 144.787 117.644L142.339 114.48L139.891 111.317C134.623 115.394 132.187 121.338 132.187 128.47H136.187ZM142.339 114.48L144.792 117.64C148.207 114.989 153.274 113.01 160.34 111.994L159.771 108.035L159.201 104.076C151.325 105.208 144.772 107.527 139.886 111.321L142.339 114.48ZM159.771 108.035L160.365 111.991C167.559 110.909 177.08 110.351 188.994 110.351V106.351V102.351C176.885 102.351 166.923 102.915 159.176 104.08L159.771 108.035ZM188.994 106.351V110.351C191.843 110.351 196.529 110.399 203.07 110.497L203.13 106.497L203.19 102.498C196.645 102.4 191.907 102.351 188.994 102.351V106.351ZM203.13 106.497H207.13V106.058H203.13H199.13V106.497H203.13ZM203.13 106.058H207.13C207.13 100.77 205.299 96.2265 201.301 93.0413L198.809 96.1699L196.316 99.2986C198.08 100.703 199.13 102.751 199.13 106.058H203.13ZM198.809 96.1699L201.333 93.0671C197.444 89.903 192.08 88.6543 185.918 88.6543V92.6543V96.6543C191.182 96.6543 194.412 97.7494 196.284 99.2728L198.809 96.1699ZM185.918 92.6543V88.6543C179.903 88.6543 174.415 89.8662 169.562 92.4061L171.416 95.9502L173.271 99.4943C176.815 97.6396 180.995 96.6543 185.918 96.6543V92.6543ZM171.416 95.9502L169.594 92.3892C164.094 95.203 161.061 99.9818 160.685 106.182L164.678 106.424L168.67 106.666C168.881 103.198 170.339 100.994 173.238 99.5112L171.416 95.9502ZM164.678 106.424L165.476 102.504L145.334 98.4027L144.536 102.322L143.738 106.242L163.88 110.343L164.678 106.424ZM144.536 102.322L148.51 101.864C148.379 100.733 148.316 99.6658 148.316 98.6602H144.316H140.316C140.316 99.9983 140.4 101.373 140.562 102.781L144.536 102.322ZM144.316 98.6602H148.316C148.316 94.0953 149.654 89.9835 152.388 86.2137L149.15 83.8652L145.912 81.5168C142.201 86.6337 140.316 92.3852 140.316 98.6602H144.316ZM149.15 83.8652L152.384 86.22C155.12 82.4625 159.309 79.3004 165.24 76.8741L163.726 73.1719L162.211 69.4697C155.252 72.3168 149.723 76.2836 145.917 81.5105L149.15 83.8652ZM163.726 73.1719L165.23 76.878C171.121 74.4862 178.442 73.2168 187.31 73.2168V69.2168V65.2168C177.72 65.2168 169.318 66.5841 162.221 69.4657L163.726 73.1719ZM187.31 69.2168V73.2168C199.541 73.2168 209.013 75.8771 216.062 80.8376L218.364 77.5664L220.666 74.2952C211.895 68.1229 200.664 65.2168 187.31 65.2168V69.2168ZM218.364 77.5664L216.062 80.8376C222.567 85.4149 226.229 93.2057 226.229 105.325H230.229H234.229C234.229 91.5658 229.982 80.8507 220.666 74.2952L218.364 77.5664ZM230.229 105.325H226.229V117.117H230.229H234.229V105.325H230.229ZM230.229 117.117H226.229C226.229 119.567 226.576 121.993 227.664 124.003L231.182 122.098L234.699 120.193C234.518 119.859 234.229 118.965 234.229 117.117H230.229ZM231.182 122.098L227.765 124.177C229.346 126.775 231.982 127.782 234.624 127.782V123.782V119.782C234.273 119.782 234.216 119.72 234.313 119.768C234.363 119.793 234.427 119.833 234.49 119.891C234.551 119.948 234.586 119.997 234.598 120.018L231.182 122.098ZM177.861 126.419V130.419C185.223 130.419 191.706 129.063 197.125 126.128L195.22 122.61L193.315 119.093C189.358 121.236 184.269 122.419 177.861 122.419V126.419ZM195.22 122.61L197.11 126.136C203.05 122.951 206.433 117.771 207.041 111.031L203.057 110.672L199.073 110.313C198.703 114.413 196.862 117.192 193.33 119.085L195.22 122.61ZM203.057 110.672L203.122 106.672L198.654 106.599L198.589 110.599L198.523 114.598L202.991 114.671L203.057 110.672ZM198.589 110.599V106.599C187.759 106.599 178.949 107.36 172.299 108.983L173.247 112.869L174.196 116.755C179.948 115.351 188.032 114.599 198.589 114.599V110.599ZM173.247 112.869L172.291 108.985C169.011 109.792 166.138 110.871 164.001 112.397C161.773 113.989 160.019 116.341 160.019 119.461H164.019H168.019C168.019 119.459 168.019 119.464 168.017 119.474C168.016 119.484 168.014 119.494 168.011 119.505C168.004 119.528 168 119.529 168.017 119.501C168.054 119.439 168.207 119.224 168.651 118.907C169.589 118.237 171.331 117.46 174.203 116.753L173.247 112.869ZM164.019 119.461H160.019C160.019 121.321 160.517 123.108 161.584 124.686C162.627 126.23 164.077 127.37 165.686 128.209L167.534 124.661L169.382 121.113C168.648 120.731 168.339 120.395 168.211 120.205C168.106 120.049 168.019 119.847 168.019 119.461H164.019ZM167.534 124.661L165.745 128.239C168.913 129.823 173.092 130.419 177.861 130.419V126.419V122.419C173.549 122.419 170.843 121.843 169.323 121.083L167.534 124.661ZM319.805 126.565L323.792 126.88L324.133 122.565H319.805V126.565ZM319.072 126.565V122.565H316.121L315.25 125.386L319.072 126.565ZM306.987 143.997L309.186 147.339L309.193 147.334L306.987 143.997ZM264.8 144.437L262.833 147.92L262.85 147.929L262.867 147.938L264.8 144.437ZM250.591 130.228L247.089 132.161L247.098 132.177L247.108 132.194L250.591 130.228ZM250.591 88.04L247.108 86.0737L247.101 86.0843L247.096 86.0951L250.591 88.04ZM264.8 74.124L266.679 77.655L266.689 77.6495L264.8 74.124ZM308.232 76.9805L305.597 79.9892L305.603 79.9946L305.609 80L308.232 76.9805ZM320.098 99.4658L316.175 100.247L316.815 103.466H320.098V99.4658ZM320.977 99.4658V103.466H325.35L324.961 99.1101L320.977 99.4658ZM320.61 95.3643L324.595 95.0085L324.594 95.0021L320.61 95.3643ZM319.365 41.0918V37.0918H315.365V41.0918H319.365ZM346.465 41.0918H350.465V37.0918H346.465V41.0918ZM346.465 147V151H350.465V147H346.465ZM318.193 147L314.206 146.686L313.866 151H318.193V147ZM314.604 100.931L311.389 103.31L311.404 103.331L311.42 103.351L314.604 100.931ZM306.694 95.2178L305.209 98.9317L305.218 98.9353L305.227 98.9389L306.694 95.2178ZM281.572 95.2178L282.96 98.9694L282.982 98.9611L283.005 98.9525L281.572 95.2178ZM273.442 100.857L270.258 98.4371L270.25 98.447L273.442 100.857ZM273.442 117.703L270.227 120.082L270.254 120.119L270.282 120.154L273.442 117.703ZM281.499 123.343L280.049 127.071L280.058 127.074L280.067 127.077L281.499 123.343ZM311.528 121.072L313.922 124.277L313.928 124.272L311.528 121.072ZM319.805 126.565V122.565H319.072V126.565V130.565H319.805V126.565ZM319.072 126.565L315.25 125.386C313.017 132.621 309.46 137.569 304.782 140.66L306.987 143.997L309.193 147.334C315.746 143.004 320.245 136.33 322.894 127.745L319.072 126.565ZM306.987 143.997L304.789 140.655C300.044 143.777 293.764 145.49 285.674 145.49V149.49V153.49C294.868 153.49 302.798 151.541 309.186 147.339L306.987 143.997ZM285.674 149.49V145.49C278.454 145.49 272.176 143.939 266.733 140.935L264.8 144.437L262.867 147.938C269.631 151.672 277.268 153.49 285.674 153.49V149.49ZM264.8 144.437L266.766 140.953C261.346 137.893 257.134 133.682 254.074 128.261L250.591 130.228L247.108 132.194C250.884 138.883 256.144 144.144 262.833 147.92L264.8 144.437ZM250.591 130.228L254.093 128.294C251.09 122.855 249.537 116.553 249.537 109.28H245.537H241.537C241.537 117.73 243.353 125.393 247.089 132.161L250.591 130.228ZM245.537 109.28H249.537C249.537 101.739 251.1 95.3509 254.086 89.985L250.591 88.04L247.096 86.0951C243.343 92.8385 241.537 100.61 241.537 109.28H245.537ZM250.591 88.04L254.074 90.0064C257.123 84.6058 261.307 80.5144 266.679 77.655L264.8 74.124L262.92 70.593C256.183 74.1789 250.895 79.3649 247.108 86.0737L250.591 88.04ZM264.8 74.124L266.689 77.6495C272.134 74.7314 278.475 73.2168 285.82 73.2168V69.2168V65.2168C277.346 65.2168 269.673 66.9737 262.91 70.5985L264.8 74.124ZM285.82 69.2168V73.2168C294.039 73.2168 300.526 75.5475 305.597 79.9892L308.232 76.9805L310.868 73.9717C304.122 68.0619 295.669 65.2168 285.82 65.2168V69.2168ZM308.232 76.9805L305.609 80C310.735 84.4537 314.347 91.0653 316.175 100.247L320.098 99.4658L324.021 98.6851C321.942 88.2374 317.644 79.8588 310.856 73.961L308.232 76.9805ZM320.098 99.4658V103.466H320.977V99.4658V95.4658H320.098V99.4658ZM320.977 99.4658L324.961 99.1101L324.595 95.0085L320.61 95.3643L316.626 95.72L316.992 99.8215L320.977 99.4658ZM320.61 95.3643L324.594 95.0021C324.156 90.1864 323.842 86.2711 323.65 83.2456L319.658 83.499L315.666 83.7525C315.865 86.8793 316.186 90.8742 316.627 95.7264L320.61 95.3643ZM319.658 83.499L323.65 83.2456C323.46 80.2575 323.365 77.1927 323.365 74.0508H319.365H315.365C315.365 77.3542 315.465 80.5882 315.666 83.7525L319.658 83.499ZM319.365 74.0508H323.365V41.0918H319.365H315.365V74.0508H319.365ZM319.365 41.0918V45.0918H346.465V41.0918V37.0918H319.365V41.0918ZM346.465 41.0918H342.465V147H346.465H350.465V41.0918H346.465ZM346.465 147V143H318.193V147V151H346.465V147ZM318.193 147L322.181 147.314L323.792 126.88L319.805 126.565L315.817 126.251L314.206 146.686L318.193 147ZM317.388 109.354H321.388C321.388 105.338 320.193 101.673 317.789 98.5103L314.604 100.931L311.42 103.351C312.727 105.071 313.388 107.021 313.388 109.354H317.388ZM314.604 100.931L317.82 98.5513C315.476 95.3843 312.167 93.0762 308.162 91.4967L306.694 95.2178L305.227 98.9389C308.155 100.094 310.119 101.594 311.389 103.31L314.604 100.931ZM306.694 95.2178L308.18 91.5039C304.171 89.9004 299.538 89.167 294.39 89.167V93.167V97.167C298.811 97.167 302.382 97.8008 305.209 98.9317L306.694 95.2178ZM294.39 93.167V89.167C289.061 89.167 284.277 89.8961 280.14 91.4831L281.572 95.2178L283.005 98.9525C285.996 97.8051 289.757 97.167 294.39 97.167V93.167ZM281.572 95.2178L280.185 91.4662C276.078 92.9852 272.672 95.2599 270.258 98.4371L273.442 100.857L276.627 103.278C277.923 101.572 279.938 100.087 282.96 98.9694L281.572 95.2178ZM273.442 100.857L270.25 98.447C267.887 101.576 266.732 105.218 266.732 109.207H270.732H274.732C274.732 106.849 275.384 104.924 276.635 103.268L273.442 100.857ZM270.732 109.207H266.732C266.732 113.231 267.879 116.909 270.227 120.082L273.442 117.703L276.658 115.324C275.393 113.614 274.732 111.629 274.732 109.207H270.732ZM273.442 117.703L270.282 120.154C272.678 123.245 276.023 125.505 280.049 127.071L281.499 123.343L282.949 119.615C279.944 118.446 277.917 116.946 276.603 115.252L273.442 117.703ZM281.499 123.343L280.067 127.077C284.204 128.664 288.988 129.394 294.316 129.394V125.394V121.394C289.684 121.394 285.923 120.755 282.932 119.608L281.499 123.343ZM294.316 125.394V129.394C302.329 129.394 309.075 127.897 313.922 124.277L311.528 121.072L309.135 117.867C306.267 120.009 301.538 121.394 294.316 121.394V125.394ZM311.528 121.072L313.928 124.272C318.842 120.587 321.388 115.495 321.388 109.354H317.388H313.388C313.388 112.977 312.027 115.698 309.128 117.872L311.528 121.072ZM460.649 122.61H464.649V116.455L459.025 118.955L460.649 122.61ZM460.649 145.682L462.509 149.223L464.649 148.099V145.682H460.649ZM452.812 148.318L451.939 144.415L451.904 144.423L451.87 144.431L452.812 148.318ZM430.62 144.217L427.356 146.529L427.367 146.544L427.377 146.559L430.62 144.217ZM427.471 116.678L431.454 117.048L431.86 112.678H427.471V116.678ZM426.592 116.678V112.678H423.442L422.703 115.74L426.592 116.678ZM369.609 147.146L371.014 143.401L370.995 143.394L370.976 143.387L369.609 147.146ZM359.575 140.042L356.357 142.418L356.369 142.434L356.381 142.45L359.575 140.042ZM362.212 114.48L364.66 117.644L364.665 117.64L362.212 114.48ZM379.644 108.035L380.213 111.994L380.226 111.993L380.238 111.991L379.644 108.035ZM423.003 106.497L422.943 110.497L427.003 110.557V106.497H423.003ZM418.682 96.1699L416.157 99.2728L416.173 99.2857L416.189 99.2986L418.682 96.1699ZM391.289 95.9502L393.111 99.5112L393.127 99.5028L393.144 99.4943L391.289 95.9502ZM384.551 106.424L383.753 110.343L388.265 111.262L388.543 106.666L384.551 106.424ZM364.409 102.322L360.436 102.781L360.768 105.663L363.611 106.242L364.409 102.322ZM369.023 83.8652L365.79 81.5105L365.785 81.5168L369.023 83.8652ZM383.599 73.1719L382.094 69.4657L382.084 69.4697L383.599 73.1719ZM451.055 122.098L447.538 124.003L447.586 124.091L447.638 124.177L451.055 122.098ZM415.093 122.61L413.203 119.085L413.195 119.089L413.188 119.093L415.093 122.61ZM422.93 110.672L426.914 111.031L427.3 106.743L422.995 106.672L422.93 110.672ZM418.462 110.599L418.527 106.599L418.495 106.599H418.462V110.599ZM393.12 112.869L392.172 108.983L392.164 108.985L393.12 112.869ZM387.407 124.661L385.559 128.209L385.589 128.224L385.618 128.239L387.407 124.661ZM454.497 123.782V127.782C457.281 127.782 459.906 127.318 462.274 126.266L460.649 122.61L459.025 118.955C457.877 119.465 456.401 119.782 454.497 119.782V123.782ZM460.649 122.61H456.649V145.682H460.649H464.649V122.61H460.649ZM460.649 145.682L458.79 142.14C457.265 142.941 455.025 143.724 451.939 144.415L452.812 148.318L453.686 152.222C457.143 151.448 460.128 150.473 462.509 149.223L460.649 145.682ZM452.812 148.318L451.87 144.431C448.932 145.143 446.099 145.49 443.364 145.49V149.49V153.49C446.782 153.49 450.248 153.056 453.755 152.206L452.812 148.318ZM443.364 149.49V145.49C438.173 145.49 435.391 143.99 433.863 141.875L430.62 144.217L427.377 146.559C430.928 151.475 436.641 153.49 443.364 153.49V149.49ZM430.62 144.217L433.884 141.905C432.12 139.414 430.885 134.849 430.885 127.444H426.885H422.885C422.885 135.371 424.14 141.988 427.356 146.529L430.62 144.217ZM426.885 127.444H430.885C430.885 124.629 431.07 121.17 431.454 117.048L427.471 116.678L423.488 116.307C423.09 120.583 422.885 124.303 422.885 127.444H426.885ZM427.471 116.678V112.678H426.592V116.678V120.678H427.471V116.678ZM426.592 116.678L422.703 115.74C421.164 122.122 418.594 127.479 415.048 131.9L418.169 134.402L421.289 136.905C425.655 131.462 428.699 125.003 430.48 117.615L426.592 116.678ZM418.169 134.402L415.048 131.9C411.489 136.338 407.138 139.705 401.955 142.033L403.594 145.682L405.233 149.33C411.573 146.483 416.939 142.33 421.289 136.905L418.169 134.402ZM403.594 145.682L401.955 142.033C396.753 144.369 390.995 145.563 384.624 145.563V149.563V153.563C392.022 153.563 398.911 152.17 405.233 149.33L403.594 145.682ZM384.624 149.563V145.563C379.278 145.563 374.767 144.808 371.014 143.401L369.609 147.146L368.205 150.892C373.046 152.707 378.545 153.563 384.624 153.563V149.563ZM369.609 147.146L370.976 143.387C367.294 142.048 364.629 140.102 362.769 137.634L359.575 140.042L356.381 142.45C359.306 146.33 363.331 149.12 368.242 150.906L369.609 147.146ZM359.575 140.042L362.793 137.666C361.032 135.281 360.06 132.29 360.06 128.47H356.06H352.06C352.06 133.732 353.431 138.456 356.357 142.418L359.575 140.042ZM356.06 128.47H360.06C360.06 123.297 361.725 119.915 364.66 117.644L362.212 114.48L359.764 111.317C354.496 115.394 352.06 121.338 352.06 128.47H356.06ZM362.212 114.48L364.665 117.64C368.08 114.989 373.147 113.01 380.213 111.994L379.644 108.035L379.074 104.076C371.199 105.208 364.645 107.527 359.759 111.321L362.212 114.48ZM379.644 108.035L380.238 111.991C387.432 110.909 396.953 110.351 408.867 110.351V106.351V102.351C396.758 102.351 386.796 102.915 379.049 104.08L379.644 108.035ZM408.867 106.351V110.351C411.716 110.351 416.402 110.399 422.943 110.497L423.003 106.497L423.063 102.498C416.518 102.4 411.78 102.351 408.867 102.351V106.351ZM423.003 106.497H427.003V106.058H423.003H419.003V106.497H423.003ZM423.003 106.058H427.003C427.003 100.77 425.172 96.2265 421.174 93.0413L418.682 96.1699L416.189 99.2986C417.953 100.703 419.003 102.751 419.003 106.058H423.003ZM418.682 96.1699L421.206 93.0671C417.317 89.903 411.953 88.6543 405.791 88.6543V92.6543V96.6543C411.055 96.6543 414.285 97.7494 416.157 99.2728L418.682 96.1699ZM405.791 92.6543V88.6543C399.776 88.6543 394.288 89.8662 389.435 92.4061L391.289 95.9502L393.144 99.4943C396.688 97.6396 400.868 96.6543 405.791 96.6543V92.6543ZM391.289 95.9502L389.467 92.3892C383.967 95.203 380.934 99.9818 380.558 106.182L384.551 106.424L388.543 106.666C388.754 103.198 390.212 100.994 393.111 99.5112L391.289 95.9502ZM384.551 106.424L385.349 102.504L365.207 98.4027L364.409 102.322L363.611 106.242L383.753 110.343L384.551 106.424ZM364.409 102.322L368.383 101.864C368.252 100.733 368.189 99.6658 368.189 98.6602H364.189H360.189C360.189 99.9983 360.273 101.373 360.436 102.781L364.409 102.322ZM364.189 98.6602H368.189C368.189 94.0953 369.527 89.9835 372.261 86.2137L369.023 83.8652L365.785 81.5168C362.074 86.6337 360.189 92.3852 360.189 98.6602H364.189ZM369.023 83.8652L372.257 86.22C374.993 82.4625 379.182 79.3004 385.113 76.8741L383.599 73.1719L382.084 69.4697C375.125 72.3168 369.597 76.2836 365.79 81.5105L369.023 83.8652ZM383.599 73.1719L385.103 76.878C390.994 74.4862 398.315 73.2168 407.183 73.2168V69.2168V65.2168C397.593 65.2168 389.191 66.5841 382.094 69.4657L383.599 73.1719ZM407.183 69.2168V73.2168C419.414 73.2168 428.886 75.8771 435.935 80.8376L438.237 77.5664L440.539 74.2952C431.768 68.1229 420.537 65.2168 407.183 65.2168V69.2168ZM438.237 77.5664L435.935 80.8376C442.44 85.4149 446.103 93.2057 446.103 105.325H450.103H454.103C454.103 91.5658 449.855 80.8507 440.539 74.2952L438.237 77.5664ZM450.103 105.325H446.103V117.117H450.103H454.103V105.325H450.103ZM450.103 117.117H446.103C446.103 119.567 446.449 121.993 447.538 124.003L451.055 122.098L454.572 120.193C454.391 119.859 454.103 118.965 454.103 117.117H450.103ZM451.055 122.098L447.638 124.177C449.219 126.775 451.855 127.782 454.497 127.782V123.782V119.782C454.146 119.782 454.089 119.72 454.186 119.768C454.236 119.793 454.3 119.833 454.363 119.891C454.424 119.948 454.459 119.997 454.471 120.018L451.055 122.098ZM397.734 126.419V130.419C405.096 130.419 411.579 129.063 416.998 126.128L415.093 122.61L413.188 119.093C409.231 121.236 404.142 122.419 397.734 122.419V126.419ZM415.093 122.61L416.983 126.136C422.923 122.951 426.306 117.771 426.914 111.031L422.93 110.672L418.946 110.313C418.576 114.413 416.735 117.192 413.203 119.085L415.093 122.61ZM422.93 110.672L422.995 106.672L418.527 106.599L418.462 110.599L418.396 114.598L422.864 114.671L422.93 110.672ZM418.462 110.599V106.599C407.633 106.599 398.822 107.36 392.172 108.983L393.12 112.869L394.069 116.755C399.821 115.351 407.905 114.599 418.462 114.599V110.599ZM393.12 112.869L392.164 108.985C388.884 109.792 386.011 110.871 383.874 112.397C381.646 113.989 379.892 116.341 379.892 119.461H383.892H387.892C387.892 119.459 387.892 119.464 387.89 119.474C387.889 119.484 387.887 119.494 387.884 119.505C387.877 119.528 387.873 119.529 387.89 119.501C387.927 119.439 388.08 119.224 388.524 118.907C389.462 118.237 391.204 117.46 394.076 116.753L393.12 112.869ZM383.892 119.461H379.892C379.892 121.321 380.39 123.108 381.457 124.686C382.5 126.23 383.95 127.37 385.559 128.209L387.407 124.661L389.255 121.113C388.521 120.731 388.212 120.395 388.084 120.205C387.979 120.049 387.892 119.847 387.892 119.461H383.892ZM387.407 124.661L385.618 128.239C388.786 129.823 392.965 130.419 397.734 130.419V126.419V122.419C393.422 122.419 390.716 121.843 389.196 121.083L387.407 124.661ZM546.709 117.923L550.659 117.291L550.148 114.101L546.922 113.929L546.709 117.923ZM543.413 135.94L539.948 133.943L539.944 133.949L539.94 133.956L543.413 135.94ZM532.28 145.828L534.013 149.433L534.027 149.426L534.041 149.42L532.28 145.828ZM487.676 141.067L484.81 143.858L484.816 143.865L484.823 143.871L487.676 141.067ZM479.473 95.291H483.473V91.291H479.473V95.291ZM463.652 95.291H459.652V99.291H463.652V95.291ZM463.652 71.7803V67.7803H459.652V71.7803H463.652ZM485.039 48.1963V44.1963H481.039V48.1963H485.039ZM506.572 48.1963H510.572V44.1963H506.572V48.1963ZM506.206 62.332L502.219 62.0105L502.217 62.0404L502.215 62.0703L506.206 62.332ZM504.888 70.0957L501.068 68.9074L500.888 69.4878V70.0957H504.888ZM504.888 71.7803H500.888V75.7803H504.888V71.7803ZM535.576 71.7803H539.576V67.7803H535.576V71.7803ZM535.576 95.291V99.291H539.576V95.291H535.576ZM506.572 95.291V91.291H502.572V95.291H506.572ZM509.209 123.929L506.236 126.605L506.271 126.644L506.307 126.682L509.209 123.929ZM526.128 116.824L526.341 112.83L521.806 112.588L522.139 117.118L526.128 116.824ZM546.709 117.923L542.759 118.555C542.913 119.515 543.002 120.712 543.002 122.171H547.002H551.002C551.002 120.408 550.896 118.772 550.659 117.291L546.709 117.923ZM547.002 122.171H543.002C543.002 126.535 541.972 130.431 539.948 133.943L543.413 135.94L546.879 137.938C549.639 133.149 551.002 127.865 551.002 122.171H547.002ZM543.413 135.94L539.94 133.956C538.066 137.235 535.023 140.028 530.519 142.237L532.28 145.828L534.041 149.42C539.694 146.648 544.072 142.849 546.886 137.925L543.413 135.94ZM532.28 145.828L530.547 142.223C526.168 144.328 520.435 145.49 513.164 145.49V149.49V153.49C521.225 153.49 528.236 152.211 534.013 149.433L532.28 145.828ZM513.164 149.49V145.49C502.27 145.49 495.008 142.822 490.529 138.264L487.676 141.067L484.823 143.871C491.378 150.543 501.108 153.49 513.164 153.49V149.49ZM487.676 141.067L490.541 138.277C486.058 133.673 483.473 126.476 483.473 115.945H479.473H475.473C475.473 127.68 478.356 137.231 484.81 143.858L487.676 141.067ZM479.473 115.945H483.473V95.291H479.473H475.473V115.945H479.473ZM479.473 95.291V91.291H463.652V95.291V99.291H479.473V95.291ZM463.652 95.291H467.652V71.7803H463.652H459.652V95.291H463.652ZM463.652 71.7803V75.7803H475.811V71.7803V67.7803H463.652V71.7803ZM475.811 71.7803V75.7803C479.654 75.7803 483.41 74.8594 485.92 72.0037L482.915 69.3633L479.91 66.7228C479.588 67.0898 478.608 67.7803 475.811 67.7803V71.7803ZM482.915 69.3633L485.92 72.0037C488.249 69.3536 489.039 65.7481 489.039 61.9658H485.039H481.039C481.039 64.8242 480.414 66.1503 479.91 66.7228L482.915 69.3633ZM485.039 61.9658H489.039V48.1963H485.039H481.039V61.9658H485.039ZM485.039 48.1963V52.1963H506.572V48.1963V44.1963H485.039V48.1963ZM506.572 48.1963H502.572C502.572 54.5756 502.449 59.1528 502.219 62.0105L506.206 62.332L510.193 62.6536C510.451 59.4566 510.572 54.61 510.572 48.1963H506.572ZM506.206 62.332L502.215 62.0703C502.034 64.8218 501.635 67.0848 501.068 68.9074L504.888 70.0957L508.707 71.284C509.507 68.7121 509.987 65.7993 510.197 62.5938L506.206 62.332ZM504.888 70.0957H500.888V71.7803H504.888H508.888V70.0957H504.888ZM504.888 71.7803V75.7803H535.576V71.7803V67.7803H504.888V71.7803ZM535.576 71.7803H531.576V95.291H535.576H539.576V71.7803H535.576ZM535.576 95.291V91.291H506.572V95.291V99.291H535.576V95.291ZM506.572 95.291H502.572V113.968H506.572H510.572V95.291H506.572ZM506.572 113.968H502.572C502.572 118.944 503.464 123.525 506.236 126.605L509.209 123.929L512.182 121.253C511.438 120.426 510.572 118.367 510.572 113.968H506.572ZM509.209 123.929L506.307 126.682C509.035 129.558 512.701 130.785 516.753 130.785V126.785V122.785C514.36 122.785 512.996 122.109 512.111 121.176L509.209 123.929ZM516.753 126.785V130.785C520.651 130.785 524.316 129.792 526.947 127.081L524.077 124.295L521.207 121.509C520.616 122.118 519.398 122.785 516.753 122.785V126.785ZM524.077 124.295L526.947 127.081C529.653 124.294 530.407 120.479 530.117 116.531L526.128 116.824L522.139 117.118C522.337 119.811 521.724 120.976 521.207 121.509L524.077 124.295ZM526.128 116.824L525.915 120.819L546.496 121.917L546.709 117.923L546.922 113.929L526.341 112.83L526.128 116.824ZM581.499 41.0918H585.499V37.0918H581.499V41.0918ZM580.913 90.6768L584.887 91.1309L584.888 91.1246L580.913 90.6768ZM579.155 102.029L583.078 102.814L583.082 102.792L583.086 102.769L579.155 102.029ZM577.983 109.061L574.024 108.495L573.371 113.061H577.983V109.061ZM578.862 109.061V113.061H582.026L582.755 109.981L578.862 109.061ZM592.559 78.958L595.507 81.6609L595.512 81.6554L595.517 81.6498L592.559 78.958ZM641.558 79.8369L638.35 82.2263L638.359 82.2387L638.368 82.2511L641.558 79.8369ZM649.541 147V151H653.541V147H649.541ZM622.734 147H618.734V151H622.734V147ZM592.925 98.5869L594.899 102.066L594.917 102.056L594.934 102.045L592.925 98.5869ZM581.206 147V151H585.206V147H581.206ZM554.399 147H550.399V151H554.399V147ZM554.399 41.0918V37.0918H550.399V41.0918H554.399ZM581.499 41.0918H577.499V78.2988H581.499H585.499V41.0918H581.499ZM581.499 78.2988H577.499C577.499 82.985 577.307 86.9538 576.938 90.2289L580.913 90.6768L584.888 91.1246C585.3 87.4661 585.499 83.1829 585.499 78.2988H581.499ZM580.913 90.6768L576.939 90.2226C576.561 93.5262 575.992 97.2133 575.224 101.289L579.155 102.029L583.086 102.769C583.881 98.5445 584.484 94.6632 584.887 91.1309L580.913 90.6768ZM579.155 102.029L575.233 101.245C574.823 103.292 574.421 105.713 574.024 108.495L577.983 109.061L581.943 109.626C582.327 106.939 582.706 104.673 583.078 102.814L579.155 102.029ZM577.983 109.061V113.061H578.862V109.061V105.061H577.983V109.061ZM578.862 109.061L582.755 109.981C585.905 96.6637 590.259 87.3866 595.507 81.6609L592.559 78.958L589.61 76.2551C583.042 83.42 578.265 94.2113 574.97 108.14L578.862 109.061ZM592.559 78.958L595.517 81.6498C600.629 76.0309 607.079 73.2168 615.19 73.2168V69.2168V65.2168C604.942 65.2168 596.304 68.8968 589.6 76.2662L592.559 78.958ZM615.19 69.2168V73.2168C626.763 73.2168 634.1 76.5213 638.35 82.2263L641.558 79.8369L644.766 77.4475C638.468 68.9924 628.227 65.2168 615.19 65.2168V69.2168ZM641.558 79.8369L638.368 82.2511C642.953 88.3083 645.541 97.5383 645.541 110.525H649.541H653.541C653.541 96.657 650.807 85.4281 644.747 77.4228L641.558 79.8369ZM649.541 110.525H645.541V147H649.541H653.541V110.525H649.541ZM649.541 147V143H622.734V147V151H649.541V147ZM622.734 147H626.734V115.872H622.734H618.734V147H622.734ZM622.734 115.872H626.734C626.734 108.304 625.217 101.89 621.3 97.5808L618.34 100.271L615.38 102.962C617.322 105.099 618.734 109.085 618.734 115.872H622.734ZM618.34 100.271L621.3 97.5808C617.364 93.2514 611.663 91.4375 605.01 91.4375V95.4375V99.4375C610.271 99.4375 613.457 100.846 615.38 102.962L618.34 100.271ZM605.01 95.4375V91.4375C599.907 91.4375 595.178 92.6516 590.915 95.1284L592.925 98.5869L594.934 102.045C597.899 100.323 601.226 99.4375 605.01 99.4375V95.4375ZM592.925 98.5869L590.95 95.1082C586.677 97.5336 583.306 100.978 580.863 105.352L584.355 107.303L587.848 109.253C589.604 106.108 591.946 103.742 594.899 102.066L592.925 98.5869ZM584.355 107.303L580.863 105.352C578.395 109.773 577.206 114.73 577.206 120.12H581.206H585.206C585.206 115.94 586.117 112.352 587.848 109.253L584.355 107.303ZM581.206 120.12H577.206V147H581.206H585.206V120.12H581.206ZM581.206 147V143H554.399V147V151H581.206V147ZM554.399 147H558.399V41.0918H554.399H550.399V147H554.399ZM554.399 41.0918V45.0918H581.499V41.0918V37.0918H554.399V41.0918ZM762.993 122.61H766.993V116.455L761.369 118.955L762.993 122.61ZM762.993 145.682L764.852 149.223L766.993 148.099V145.682H762.993ZM755.156 148.318L754.282 144.415L754.248 144.423L754.214 144.431L755.156 148.318ZM732.964 144.217L729.7 146.529L729.71 146.544L729.721 146.559L732.964 144.217ZM729.814 116.678L733.797 117.048L734.204 112.678H729.814V116.678ZM728.936 116.678V112.678H725.785L725.047 115.74L728.936 116.678ZM671.953 147.146L673.358 143.401L673.339 143.394L673.32 143.387L671.953 147.146ZM661.919 140.042L658.701 142.418L658.713 142.434L658.725 142.45L661.919 140.042ZM664.556 114.48L667.004 117.644L667.009 117.64L664.556 114.48ZM681.987 108.035L682.557 111.994L682.569 111.993L682.582 111.991L681.987 108.035ZM725.347 106.497L725.287 110.497L729.347 110.557V106.497H725.347ZM721.025 96.1699L718.501 99.2728L718.517 99.2857L718.533 99.2986L721.025 96.1699ZM693.633 95.9502L695.455 99.5112L695.471 99.5028L695.487 99.4943L693.633 95.9502ZM686.895 106.424L686.096 110.343L690.609 111.262L690.887 106.666L686.895 106.424ZM666.753 102.322L662.779 102.781L663.112 105.663L665.955 106.242L666.753 102.322ZM671.367 83.8652L668.134 81.5105L668.129 81.5168L671.367 83.8652ZM685.942 73.1719L684.438 69.4657L684.428 69.4697L685.942 73.1719ZM753.398 122.098L749.881 124.003L749.929 124.091L749.982 124.177L753.398 122.098ZM717.437 122.61L715.547 119.085L715.539 119.089L715.531 119.093L717.437 122.61ZM725.273 110.672L729.257 111.031L729.644 106.743L725.339 106.672L725.273 110.672ZM720.806 110.599L720.871 106.599L720.838 106.599H720.806V110.599ZM695.464 112.869L694.515 108.983L694.508 108.985L695.464 112.869ZM689.751 124.661L687.903 128.209L687.933 128.224L687.962 128.239L689.751 124.661ZM756.841 123.782V127.782C759.625 127.782 762.25 127.318 764.618 126.266L762.993 122.61L761.369 118.955C760.221 119.465 758.744 119.782 756.841 119.782V123.782ZM762.993 122.61H758.993V145.682H762.993H766.993V122.61H762.993ZM762.993 145.682L761.134 142.14C759.608 142.941 757.369 143.724 754.282 144.415L755.156 148.318L756.03 152.222C759.487 151.448 762.472 150.473 764.852 149.223L762.993 145.682ZM755.156 148.318L754.214 144.431C751.276 145.143 748.443 145.49 745.708 145.49V149.49V153.49C749.125 153.49 752.591 153.056 756.099 152.206L755.156 148.318ZM745.708 149.49V145.49C740.517 145.49 737.734 143.99 736.207 141.875L732.964 144.217L729.721 146.559C733.271 151.475 738.985 153.49 745.708 153.49V149.49ZM732.964 144.217L736.228 141.905C734.464 139.414 733.229 134.849 733.229 127.444H729.229H725.229C725.229 135.371 726.483 141.988 729.7 146.529L732.964 144.217ZM729.229 127.444H733.229C733.229 124.629 733.414 121.17 733.797 117.048L729.814 116.678L725.832 116.307C725.434 120.583 725.229 124.303 725.229 127.444H729.229ZM729.814 116.678V112.678H728.936V116.678V120.678H729.814V116.678ZM728.936 116.678L725.047 115.74C723.508 122.122 720.937 127.479 717.392 131.9L720.513 134.402L723.633 136.905C727.998 131.462 731.043 125.003 732.824 117.615L728.936 116.678ZM720.513 134.402L717.392 131.9C713.833 136.338 709.482 139.705 704.299 142.033L705.938 145.682L707.576 149.33C713.916 146.483 719.282 142.33 723.633 136.905L720.513 134.402ZM705.938 145.682L704.299 142.033C699.097 144.369 693.339 145.563 686.968 145.563V149.563V153.563C694.366 153.563 701.254 152.17 707.576 149.33L705.938 145.682ZM686.968 149.563V145.563C681.621 145.563 677.11 144.808 673.358 143.401L671.953 147.146L670.549 150.892C675.39 152.707 680.888 153.563 686.968 153.563V149.563ZM671.953 147.146L673.32 143.387C669.638 142.048 666.973 140.102 665.113 137.634L661.919 140.042L658.725 142.45C661.65 146.33 665.674 149.12 670.586 150.906L671.953 147.146ZM661.919 140.042L665.137 137.666C663.375 135.281 662.403 132.29 662.403 128.47H658.403H654.403C654.403 133.732 655.775 138.456 658.701 142.418L661.919 140.042ZM658.403 128.47H662.403C662.403 123.297 664.069 119.915 667.004 117.644L664.556 114.48L662.108 111.317C656.839 115.394 654.403 121.338 654.403 128.47H658.403ZM664.556 114.48L667.009 117.64C670.423 114.989 675.491 113.01 682.557 111.994L681.987 108.035L681.418 104.076C673.542 105.208 666.989 107.527 662.102 111.321L664.556 114.48ZM681.987 108.035L682.582 111.991C689.776 110.909 699.297 110.351 711.211 110.351V106.351V102.351C699.102 102.351 689.14 102.915 681.393 104.08L681.987 108.035ZM711.211 106.351V110.351C714.059 110.351 718.745 110.399 725.287 110.497L725.347 106.497L725.406 102.498C718.862 102.4 714.124 102.351 711.211 102.351V106.351ZM725.347 106.497H729.347V106.058H725.347H721.347V106.497H725.347ZM725.347 106.058H729.347C729.347 100.77 727.516 96.2265 723.518 93.0413L721.025 96.1699L718.533 99.2986C720.296 100.703 721.347 102.751 721.347 106.058H725.347ZM721.025 96.1699L723.55 93.0671C719.661 89.903 714.297 88.6543 708.135 88.6543V92.6543V96.6543C713.399 96.6543 716.629 97.7494 718.501 99.2728L721.025 96.1699ZM708.135 92.6543V88.6543C702.12 88.6543 696.632 89.8662 691.778 92.4061L693.633 95.9502L695.487 99.4943C699.032 97.6396 703.212 96.6543 708.135 96.6543V92.6543ZM693.633 95.9502L691.811 92.3892C686.311 95.203 683.278 99.9818 682.902 106.182L686.895 106.424L690.887 106.666C691.097 103.198 692.556 100.994 695.455 99.5112L693.633 95.9502ZM686.895 106.424L687.693 102.504L667.551 98.4027L666.753 102.322L665.955 106.242L686.096 110.343L686.895 106.424ZM666.753 102.322L670.727 101.864C670.596 100.733 670.533 99.6658 670.533 98.6602H666.533H662.533C662.533 99.9983 662.617 101.373 662.779 102.781L666.753 102.322ZM666.533 98.6602H670.533C670.533 94.0953 671.871 89.9835 674.605 86.2137L671.367 83.8652L668.129 81.5168C664.418 86.6337 662.533 92.3852 662.533 98.6602H666.533ZM671.367 83.8652L674.601 86.22C677.337 82.4625 681.526 79.3004 687.457 76.8741L685.942 73.1719L684.428 69.4697C677.468 72.3168 671.94 76.2836 668.134 81.5105L671.367 83.8652ZM685.942 73.1719L687.447 76.878C693.338 74.4862 700.659 73.2168 709.526 73.2168V69.2168V65.2168C699.937 65.2168 691.535 66.5841 684.438 69.4657L685.942 73.1719ZM709.526 69.2168V73.2168C721.758 73.2168 731.23 75.8771 738.279 80.8376L740.581 77.5664L742.883 74.2952C734.112 68.1229 722.881 65.2168 709.526 65.2168V69.2168ZM740.581 77.5664L738.279 80.8376C744.784 85.4149 748.446 93.2057 748.446 105.325H752.446H756.446C756.446 91.5658 752.199 80.8507 742.883 74.2952L740.581 77.5664ZM752.446 105.325H748.446V117.117H752.446H756.446V105.325H752.446ZM752.446 117.117H748.446C748.446 119.567 748.792 121.993 749.881 124.003L753.398 122.098L756.916 120.193C756.735 119.859 756.446 118.965 756.446 117.117H752.446ZM753.398 122.098L749.982 124.177C751.563 126.775 754.199 127.782 756.841 127.782V123.782V119.782C756.49 119.782 756.432 119.72 756.53 119.768C756.58 119.793 756.644 119.833 756.706 119.891C756.768 119.948 756.803 119.997 756.815 120.018L753.398 122.098ZM700.078 126.419V130.419C707.44 130.419 713.923 129.063 719.342 126.128L717.437 122.61L715.531 119.093C711.575 121.236 706.486 122.419 700.078 122.419V126.419ZM717.437 122.61L719.326 126.136C725.267 122.951 728.65 117.771 729.257 111.031L725.273 110.672L721.29 110.313C720.92 114.413 719.079 117.192 715.547 119.085L717.437 122.61ZM725.273 110.672L725.339 106.672L720.871 106.599L720.806 110.599L720.74 114.598L725.208 114.671L725.273 110.672ZM720.806 110.599V106.599C709.976 106.599 701.165 107.36 694.515 108.983L695.464 112.869L696.412 116.755C702.165 115.351 710.248 114.599 720.806 114.599V110.599ZM695.464 112.869L694.508 108.985C691.227 109.792 688.355 110.871 686.218 112.397C683.989 113.989 682.235 116.341 682.235 119.461H686.235H690.235C690.235 119.459 690.235 119.464 690.234 119.474C690.233 119.484 690.231 119.494 690.228 119.505C690.221 119.528 690.217 119.529 690.233 119.501C690.271 119.439 690.424 119.224 690.867 118.907C691.806 118.237 693.548 117.46 696.419 116.753L695.464 112.869ZM686.235 119.461H682.235C682.235 121.321 682.734 123.108 683.8 124.686C684.844 126.23 686.294 127.37 687.903 128.209L689.751 124.661L691.599 121.113C690.865 120.731 690.556 120.395 690.428 120.205C690.323 120.049 690.235 119.847 690.235 119.461H686.235ZM689.751 124.661L687.962 128.239C691.13 129.823 695.309 130.419 700.078 130.419V126.419V122.419C695.765 122.419 693.06 121.843 691.54 121.083L689.751 124.661Z" fill="black" mask="url(#path-1-outside-1_1055_58)"/>
</g>
<circle cx="291.5" cy="110.5" r="27.5" fill="black"/>
<path fill-rule="evenodd" clip-rule="evenodd" d="M306.989 96.2657C307.432 95.9991 307.961 95.9145 308.465 96.0298C308.97 96.145 309.409 96.451 309.693 96.8837L311.673 99.9037C311.931 100.298 312.041 100.771 311.985 101.239C311.928 101.707 311.708 102.14 311.363 102.462L311.357 102.47L311.329 102.496L311.215 102.602L310.765 103.032C308.275 105.447 305.86 107.939 303.525 110.504C299.131 115.336 293.913 121.66 290.401 127.796C289.421 129.508 287.027 129.876 285.607 128.398L272.637 114.922C272.451 114.728 272.306 114.5 272.21 114.249C272.114 113.999 272.07 113.732 272.079 113.464C272.089 113.196 272.152 112.933 272.265 112.69C272.379 112.447 272.54 112.229 272.739 112.05L276.659 108.514C277.003 108.203 277.445 108.022 277.908 108.001C278.372 107.98 278.828 108.121 279.199 108.4L285.817 113.362C296.155 103.168 302.017 99.2557 306.989 96.2657ZM307.409 100.698C302.829 103.562 297.113 107.716 287.413 117.414C287.072 117.754 286.621 117.96 286.141 117.994C285.66 118.029 285.184 117.888 284.799 117.6L278.115 112.588L276.953 113.636L287.587 124.688C291.279 118.548 296.361 112.436 300.567 107.812C302.782 105.379 305.066 103.01 307.417 100.708L307.409 100.698Z" fill="white"/>
<path d="M9.25288 223.748C-4.47793 177.372 544.64 163.175 756.253 188.248" stroke="white" stroke-width="10"/>
<defs>
<filter id="filter0_d_1055_58" x="4.96484" y="37.0918" width="766.027" height="120.472" filterUnits="userSpaceOnUse" color-interpolation-filters="sRGB">
<feFlood flood-opacity="0" result="BackgroundImageFix"/>
<feColorMatrix in="SourceAlpha" type="matrix" values="0 0 0 0 0 0 0 0 0 0 0 0 0 0 0 0 0 0 127 0" result="hardAlpha"/>
<feOffset dx="4" dy="4"/>
<feComposite in2="hardAlpha" operator="out"/>
<feColorMatrix type="matrix" values="0 0 0 0 1 0 0 0 0 1 0 0 0 0 1 0 0 0 1 0"/>
<feBlend mode="normal" in2="BackgroundImageFix" result="effect1_dropShadow_1055_58"/>
<feBlend mode="normal" in="SourceGraphic" in2="effect1_dropShadow_1055_58" result="shape"/>
</filter>
</defs>
</svg>
